<svg id="canvas" width="3948" height="2957" version="1.1" xmlns="http://www.w3.org/2000/svg">
			<defs id="defs"><pattern id="smallGrid" width="30" height="30" patternUnits="userSpaceOnUse"><path d="M 30 0 L 0 0 0 30" fill="none" stroke="gray" stroke-width="0.5"></path></pattern><pattern id="grid" width="300" height="300" patternUnits="userSpaceOnUse"><rect width="300" height="300" fill="url(#smallGrid)"></rect><path d="M 300 0 L 0 0 0 300" fill="none" stroke="gray" stroke-width="1"></path></pattern><pattern id="dots" width="30" height="30" x="-10" y="-10" patternUnits="userSpaceOnUse"><circle fill="gray" cx="10" cy="10" r="2"></circle></pattern></defs>
			<rect id="gridContainer" width="100%" height="100%" fill="none"></rect><g id="drawingArea"><path id="llty43byxt" stroke="#90468b" stroke-width="4" opacity="1" d="M 211 143 L 211 143 C 211 143 208.17851130197758 144.82148869802242 207 146 C 198.83163283010478 154.16836716989522 189.8214625852252 161.6773344668589 183 171 C 179.63645359755589 175.59684675000696 178.32929292000333 181.46127949998618 177 187 C 176.29988114257404 189.91716190594155 176.76991050334578 193.00883654349525 177 196 C 177.10540925533894 197.3703203194063 177.14143877837762 198.92679847297202 178 200 C 178.65848639776638 200.82310799720798 180.04479910012392 200.55423958005784 181 201 C 185.05257420218723 202.89120129435403 188.93453852010916 205.13666348838336 193 207 C 196.93928089920857 208.8055037454706 200.8890390417811 210.6296796805937 205 212 C 206.92353840616713 212.64117946872238 209.12838075990825 212.22015864996177 211 213 C 213.2188007849009 213.92450032704204 214.68532256699572 216.35189031875882 217 217 C 223.17432758559104 218.7288117239655 229.62469384943898 219.31693148386847 236 220 C 238.98292746175943 220.3195993709028 242 220 245 220 C 248.66666666666666 220 252.3946326483903 220.66766062066847 256 220 C 261.49426998358473 218.98254259563245 266.8119648408805 217.07521406364782 272 215 C 273.54746115147543 214.38101553940982 274.9153477109067 213.26542767060883 276 212 C 276.97014250014536 210.86816708316377 277.0847913693551 209.1766968108291 278 208 C 279.44707190354075 206.1394789811619 282.14570596973874 205.19675607781463 283 203 C 284.58907875320403 198.9137974917611 284.6503717875432 194.37035265571058 285 190 C 285.3189808891316 186.0127388858555 285.4417261042994 181.97553493869447 285 178 C 284.7671899014101 175.90470911269128 283.5113099925649 174.04523997025964 283 172 C 282.5082377959222 170.0329511836887 282.6748219138296 167.91199542251715 282 166 C 280.6595064054897 162.2019348155542 279.2817979374369 158.3189788180901 277 155 C 275.5250894815515 152.85467560952947 273.1184871932556 151.51320513803972 271 150 C 270.72875550959776 149.80625393542698 270.30949223029506 149.87620310788196 270 150 C 268.61590866910433 150.55363653235827 267.3957971269072 151.4765760774098 266 152 C 264.71313863351173 152.4825730124331 262.97182531580756 152.02817468419244 262 153 C 261.29289321881345 153.70710678118655 262.24253562503634 155.02985749985467 262 156 C 261.885667609905 156.45732956038003 261.0774984258292 156.5350094450247 261 157 C 260.7260016878244 158.64398987305358 261.4385290096535 160.39206029793712 261 162 C 260.41165159458546 164.15727748652003 258.6425294053172 165.8582353156094 258 168 C 257.61686948591154 169.2771017136282 258 170.66666666666666 258 172 C 258 172.33333333333334 258.08084520834547 172.67661916661822 258 173 C 257.74434500371757 174.02261998512984 257.20672455764867 174.9663772117566 257 176 C 256.86925590990785 176.6537204504606 257 177.33333333333334 257 178 C 257 179 257 180 257 181 C 257 181.66666666666666 256.89040067512974 182.34240405077858 257 183 C 257.2259447964682 184.35566877880913 257.4586097079963 185.73675598532466 258 187 C 258.473432076474 188.104674845106 259.2788897449072 189.03851965987627 260 190 C 260.28284271247463 190.37712361663282 260.7891814893221 190.5783629786442 261 191 C 261.1490711985 191.29814239699996 260.7642977396045 191.76429773960447 261 192 C 262.84089350286456 193.84089350286453 265.15910649713544 195.15910649713547 267 197 C 268.17851130197755 198.17851130197758 268.82148869802245 199.82148869802242 270 201 C 271.84089350286456 202.84089350286453 274 204.33333333333334 276 206 C 278 207.66666666666666 279.67143344045695 209.83571672022848 282 211 C 283.1925695879999 211.59628479399996 284.6748216871018 210.85275796523354 286 211 C 287.6892775191144 211.18769750212383 289.3455089546003 211.61070798931772 291 212 C 295.01350180282896 212.9443533653715 298.91306266642624 214.45507502219016 303 215 C 308.95653836930296 215.79420511590706 314.9969461761606 215.7271339170982 321 216 C 322.33195805361373 216.06054354789154 323.6666666666667 216 325 216 C 325.3333333333333 216 325.69654450751244 216.13793431476705 326 216 C 329.392735546739 214.45784747875499 332.75182975243933 212.82709576425287 336 211 C 338.0950068596951 209.82155864142152 340.3696175403126 208.7662476646613 342 207 C 344.44557368953105 204.35062850300804 345.69178232125756 200.7698612144909 348 198 C 349.0669739994408 196.71963120067105 350.82148869802245 196.17851130197758 352 195 C 354.17306746840086 192.8269325315991 355.7533344845656 190.09688781440548 358 188 C 360.77843750413257 185.40679166280958 364.2073172338585 183.57786101489987 367 181 C 368.5683459153478 179.5522960781405 369.3603279016328 177.36639341530602 371 176 C 371.51214751973157 175.57321040022367 372.3872366466546 176.26261286571943 373 176 C 377.1105415366029 174.23833934145588 380.9535277491309 171.90422223570312 385 170 C 386.62419927730997 169.2356709283247 388.29706136340735 168.56764621219756 390 168 C 390.3162277660168 167.89459074466106 390.6700168354463 168.0471404520791 391 168 C 393.0072092289766 167.7132558244319 395.07646159383285 167.64117946872238 397 167 C 398.14017542509913 166.61994152496695 400 165 400 165"></path><rect id="rlty43hi43" stroke="#90468b" stroke-width="4" opacity="1" x="483" y="138" width="458" height="149"></rect><text id="tlty43ml6i" x="526" y="243" font-size="36" fill="#90468b" opacity="1">PROVA</text></g>
			<g id="cursors"><circle class="opcursor" id="cursor-me" cx="0" cy="0" r="2" fill="#90468b" style="transform: translate(63px, 495px);"></circle></g>
		<rect id="selectionRect" stroke="black" stroke-width="1" vector-effect="non-scaling-stroke" fill="none" stroke-dasharray="5 5" opacity="1" x="0" y="0" width="0" height="0" style="display: none;"></rect><image href="tools/hand/delete.svg" width="24" height="24" style="display: none;"></image><image href="tools/hand/duplicate.svg" width="24" height="24" style="display: none;"></image><image href="tools/hand/handle.svg" width="14" height="14" style="display: none;"></image><style>html, body, svg { padding: 0px; margin: 0px; font-family: "Liberation sans", sans-serif; },#canvas { transform-origin: 0px 0px; },#loadingMessage { font-size: 1.5em; background: linear-gradient(rgb(238, 238, 238), rgb(204, 204, 204)) rgb(238, 238, 238); padding: 20px; width: 40%; line-height: 50px; text-align: center; border-radius: 10px; position: fixed; top: 40%; left: 30%; z-index: 1; box-shadow: rgb(51, 51, 51) 0px 0px 2px; transition: all 1s ease 0s; },#loadingMessage.hidden { display: none; opacity: 0; z-index: -1; },#loadingMessage::after { content: "..."; },#menu::-webkit-scrollbar { display: none; },#menu { scrollbar-width: none; font-size: 16px; border-radius: 0px; overflow-y: scroll; position: fixed; margin-bottom: 30px; left: 0px; top: 0px; color: black; max-height: 100%; transition-duration: 1s; cursor: default; padding: 10px; },#menu.closed { border-radius: 3px; left: 10px; top: 10px; background-color: rgba(100, 200, 255, 0.7); width: 6vw; height: 2em; transition-duration: 1s; },#menu h2 { display: none; font-size: 4vh; text-align: center; letter-spacing: 0.5vw; text-shadow: white 0px 0px 5px; color: black; padding: 0px; margin: 0px; },#menu .tools { list-style-type: none; padding: 0px; },#settings { margin-bottom: 20px; },#menu .tool { position: relative; user-select: none; pointer-events: auto; white-space: nowrap; list-style-position: inside; border: 1px solid rgb(238, 238, 238); text-decoration: none; cursor: pointer; background: rgb(255, 255, 255); margin-top: 10px; height: 40px; line-height: 40px; border-radius: 0px; max-width: 40px; transition-duration: 0.2s; overflow: hidden; width: max-content; box-shadow: rgb(143, 162, 188) 0px 0px 3px inset; },#menu .tool:hover { max-width: 100%; },@media (hover: none), (pointer: coarse) {
  #menu .tool:hover { max-width: 40px; }
  #menu .tool:focus { max-width: 100%; }
  #menu { pointer-events: auto; }
  #menu:focus-within { pointer-events: none; }
},#menu .oneTouch:active { border-radius: 3px; background-color: rgb(238, 238, 255); },#menu .tool:active { box-shadow: rgb(221, 238, 255) 0px 0px 1px inset; background-color: rgb(238, 238, 255); },#menu .tool.curTool { box-shadow: rgb(0, 116, 217) 0px 0px 5px; background: linear-gradient(rgb(150, 225, 255), rgb(54, 162, 255)); },#menu .tool-icon { display: inline-block; text-align: center; width: 35px; height: 35px; margin: 2.5px; font-family: mono, monospace; overflow: hidden; },#menu img.tool-icon { pointer-events: none; },#menu .tool-icon > * { display: block; margin: auto; },#menu .tool-name { text-align: center; font-size: 23px; margin-right: 20px; margin-left: 20px; margin-bottom: 2.5px; display: inline-block; vertical-align: text-bottom; },#menu .tool-name.slider { display: inline-block; width: 150px; height: 30px; font-size: 0.9em; line-height: 15px; vertical-align: top; padding: 6px; },#menu .tool.hasSecondary .tool-icon { margin-top: 0px; margin-left: 0px; },#menu .tool .tool-icon.secondaryIcon { display: none; },#menu .tool.hasSecondary .tool-icon.secondaryIcon { display: block; position: absolute; bottom: 0px; left: 26px; width: 12px; height: 12px; },input { font-size: 16px; },#chooseColor { width: 100%; height: 100%; border: 0px; border-radius: 0px; color: black; display: block; margin: 0px; padding: 0px; },.colorPresets { margin-right: 20px; vertical-align: top; display: inline-block; },.colorPresetButton { width: 30px; height: 30px; border: 1px solid black; border-radius: 3px; display: inline-block; margin-right: 6px; padding: 0px; vertical-align: middle; },.rangeChooser { display: block; border: 0px; width: 100%; margin: 0px; background: transparent; },line { fill: none; stroke-linecap: round; stroke-linejoin: round; },path { fill: none; stroke-linecap: round; stroke-linejoin: round; },text { font-family: Arial, Helvetica, sans-serif; user-select: none; },circle.opcursor { pointer-events: none; transition: all 0.1s ease 0s; },#cursor-me { transition: all 0s ease 0s; },@media screen and (-ms-high-contrast: active), (-ms-high-contrast: none) {
  #chooseColor { color: transparent; }
  label.tool-name[for="chooseColor"] { line-height: 10px; }
}
path { fill: none; stroke-linecap: round; stroke-linejoin: round; }
line { fill: none; stroke-linecap: round; stroke-linejoin: round; }
#drawingArea rect { fill: none; }
#canvas ellipse { fill: none; }
#textToolInput { position: fixed; top: -1000px; left: 80px; width: 500px; },#textToolInput:focus { top: 5px; },text { font-family: Arial, Helvetica, sans-serif; user-select: none; }</style></svg>